<svg width="24" height="24" viewBox="0 0 24 24" fill="none" xmlns="http://www.w3.org/2000/svg">
<path fill-rule="evenodd" clip-rule="evenodd" d="M6 0C2.68629 0 0 2.68628 0 6V18C0 21.3137 2.68629 24 6 24H18C21.3137 24 24 21.3137 24 18V6C24 2.68628 21.3137 0 18 0H6ZM19.9395 8.09863C20.3838 7.68848 20.3838 6.9707 19.9395 6.56055C19.5293 6.11621 18.8115 6.11621 18.4014 6.56055L10.4375 14.5244L6.81445 10.9355C6.4043 10.4912 5.68652 10.4912 5.27637 10.9355C4.83203 11.3457 4.83203 12.0635 5.27637 12.4736L9.65137 16.8486C10.0615 17.293 10.7793 17.293 11.1895 16.8486L19.9395 8.09863Z" fill="#0063FF"/>
</svg>
